<?xml version="1.0" standalone="no"?><!DOCTYPE svg PUBLIC "-//W3C//DTD SVG 1.1//EN" "http://www.w3.org/Graphics/SVG/1.1/DTD/svg11.dtd"><svg t="1621228921474" class="icon" viewBox="0 0 1024 1024" version="1.1" xmlns="http://www.w3.org/2000/svg" p-id="5699" xmlns:xlink="http://www.w3.org/1999/xlink" width="128" height="128"><defs><style type="text/css"></style></defs><path d="M469.2 350.1C414 376.4 370.3 421.7 346 477.8c-7 16.2 0.5 35.1 16.7 42.1 4.1 1.8 8.4 2.6 12.7 2.6 12.4 0 24.2-7.2 29.4-19.3 18.1-41.9 50.8-75.7 92-95.4 16-7.6 22.7-26.7 15.1-42.6C504.3 349.3 485.2 342.5 469.2 350.1z" p-id="5700"></path><path d="M797.6 545.8c-17.7 0-32 14.3-32 32 0 103.7-84.4 188.1-188.1 188.1-17.7 0-32 14.3-32 32s14.3 32 32 32c67.3 0 130.6-26.2 178.2-73.8 47.6-47.6 73.8-110.9 73.8-178.2C829.6 560.1 815.3 545.8 797.6 545.8z" p-id="5701"></path><path d="M1014.6 968.4 869.4 823.2c24.9-29.5 45.1-62.3 60.2-97.9 20-47.3 30.2-97.6 30.2-149.4s-10.2-102.1-30.2-149.4c-19.3-45.7-47-86.8-82.3-122-35.2-35.2-76.3-62.9-122-82.3-47.3-20-97.6-30.2-149.4-30.2s-102.1 10.2-149.4 30.2c-45.7 19.3-86.8 47-122 82.3-35.2 35.2-62.9 76.3-82.3 122-20 47.3-30.2 97.6-30.2 149.4s10.2 102.1 30.2 149.4c19.3 45.7 47 86.8 82.3 122 35.2 35.2 76.3 62.9 122 82.3 47.3 20 97.6 30.2 149.4 30.2s102.1-10.2 149.4-30.2c36.1-15.3 69.2-35.7 98.9-61l145.2 145.2c6.2 6.2 14.4 9.4 22.6 9.4s16.4-3.1 22.6-9.4C1027.1 1001.2 1027.1 980.9 1014.6 968.4zM575.9 895.7C399.5 895.7 256 752.2 256 575.8s143.5-319.9 319.9-319.9 319.9 143.5 319.9 319.9S752.2 895.7 575.9 895.7z" p-id="5702"></path><path d="M319 960 140 960c-41.9 0-76-34.1-76-76l0-744c0-41.9 34.1-76 76-76l680 0c41.9 0 76 34.1 76 76l0 92.7c0 17.7 14.3 32 32 32s32-14.3 32-32l0-92.7c0-77.2-62.8-140-140-140L140 0c-77.2 0-140 62.8-140 140l0 744c0 77.2 62.8 140 140 140l179 0c17.7 0 32-14.3 32-32S336.7 960 319 960z" p-id="5703"></path></svg>