<?xml version="1.0" standalone="no"?><!DOCTYPE svg PUBLIC "-//W3C//DTD SVG 1.1//EN" "http://www.w3.org/Graphics/SVG/1.1/DTD/svg11.dtd"><svg t="1608640366849" class="icon" viewBox="0 0 1024 1024" version="1.1" xmlns="http://www.w3.org/2000/svg" p-id="1256" width="128" height="128" xmlns:xlink="http://www.w3.org/1999/xlink"><defs><style type="text/css"></style></defs><path d="M921.6 128 102.4 128c-56.32 0-102.4 46.08-102.4 102.4l0 563.2c0 56.32 46.08 102.4 102.4 102.4l819.2 0c56.32 0 102.4-46.08 102.4-102.4L1024 230.4C1024 174.08 977.92 128 921.6 128zM102.4 179.2l819.2 0c28.2368 0 51.2 22.9632 51.2 51.2l0 475.2768L764.6848 511.3344l-124.3776 164.9024L387.072 344.448 51.2 702.4256 51.2 230.4C51.2 202.1632 74.1632 179.2 102.4 179.2zM921.6 844.8 102.4 844.8c-28.2368 0-51.2-22.9632-51.2-51.2l0-16.3328L383.0528 423.552l257.5104 337.3824 130.752-173.3632L972.8 775.744 972.8 793.6C972.8 821.8368 949.8368 844.8 921.6 844.8z" p-id="1257" fill="#ffffff"></path><path d="M768 460.8128c56.5504 0 102.4-45.8496 102.4-102.4s-45.8496-102.4-102.4-102.4-102.4 45.8496-102.4 102.4S711.4496 460.8128 768 460.8128zM768 307.2128c28.2368 0 51.2 22.9632 51.2 51.2 0 28.2368-22.9632 51.2-51.2 51.2s-51.2-22.9632-51.2-51.2C716.8 330.176 739.7632 307.2128 768 307.2128z" p-id="1258" fill="#ffffff"></path></svg>