<?xml version="1.0" standalone="no"?><!DOCTYPE svg PUBLIC "-//W3C//DTD SVG 1.1//EN"
  "http://www.w3.org/Graphics/SVG/1.1/DTD/svg11.dtd">
<svg t="1621228667226" class="icon" viewBox="0 0 1024 1024" version="1.1" xmlns="http://www.w3.org/2000/svg" p-id="3486"
     xmlns:xlink="http://www.w3.org/1999/xlink" width="128" height="128">
  <defs>
    <style type="text/css"></style>
  </defs>
  <path
    d="M913.3 752.5l-88.9-160c-5.6-10.2-16.4-16.5-28-16.5H620.8c-11.6 0-22.3 6.3-28 16.5l-88.9 160c-5.4 9.7-5.4 21.4 0 31.1l88.9 160c5.6 10.2 16.4 16.5 28 16.5h175.7c11.6 0 22.3-6.3 28-16.5l88.9-160c5.3-9.7 5.3-21.5-0.1-31.1zM793.9 917.3H623.3L537.9 768l85.3-149.3h170.7L879.3 768l-85.4 149.3z"
    p-id="3487"></path>
  <path
    d="M708.6 682.7c-47.1 0-85.3 38.2-85.3 85.3 0 47.1 38.2 85.3 85.3 85.3s85.3-38.2 85.3-85.3c0-47.1-38.2-85.3-85.3-85.3z m0 128c-23.6 0-42.7-19.1-42.7-42.7s19.1-42.7 42.7-42.7 42.7 19.1 42.7 42.7-19.1 42.7-42.7 42.7zM512 533.3c138.4 0 248.8-119.8 233.2-261.4-11.9-107.3-99.1-194.6-206.5-206.4-141.6-15.6-261.4 94.8-261.4 233.2 0 90 50.7 168 125 207.4C231.9 553.9 106.7 710.2 106.7 896c0 15.5 1.1 30.7 2.9 45.7 1.3 10.5 10.5 18.3 21.1 18.3 12.5 0 22.6-10.8 21.1-23.3-1.6-13.4-2.5-26.9-2.5-40.7 0-200.3 162.4-362.7 362.7-362.7zM322.7 331.2c-21.6-131.4 90.4-243.4 221.8-221.8 79.6 13.1 143.8 77.2 156.8 156.8 21.6 131.4-90.4 243.4-221.8 221.9-79.6-13.2-143.8-77.3-156.8-156.9z"
    p-id="3488"></path>
</svg>
