<?xml version="1.0" standalone="no"?><!DOCTYPE svg PUBLIC "-//W3C//DTD SVG 1.1//EN"
  "http://www.w3.org/Graphics/SVG/1.1/DTD/svg11.dtd">
<svg t="1621228795141" class="icon" viewBox="0 0 1024 1024" version="1.1" xmlns="http://www.w3.org/2000/svg" p-id="3954"
     xmlns:xlink="http://www.w3.org/1999/xlink" width="128" height="128">
  <defs>
    <style type="text/css"></style>
  </defs>
  <path
    d="M684.8512 102.4a102.4 102.4 0 0 1 100.1472 80.9472l105.6256 493.2608-60.9792 208.1792a51.2 51.2 0 0 1-49.152 36.8128H243.0464a51.2 51.2 0 0 1-49.2032-37.0688L133.12 673.1776 238.2848 183.296A102.4 102.4 0 0 1 338.432 102.4h346.4192z m0 102.4H338.432L239.104 666.5728h81.6128l53.504 56.576h275.9168L706.56 666.624l77.1584-0.0512L684.9024 204.8zM640 486.4a51.2 51.2 0 0 1 5.9904 102.0416l-5.9904 0.3584h-256a51.2 51.2 0 0 1-5.9904-102.0416L384 486.4h256z m-51.2-153.6a51.2 51.2 0 0 1 5.9904 102.0416L588.8 435.2h-153.6a51.2 51.2 0 0 1-5.9904-102.0416L435.2 332.8h153.6z"
    p-id="3955"></path>
</svg>
